<?xml version="1.0" standalone="no"?>
<!DOCTYPE svg PUBLIC "-//W3C//DTD SVG 20010904//EN"
 "http://www.w3.org/TR/2001/REC-SVG-20010904/DTD/svg10.dtd">
<svg version="1.0" xmlns="http://www.w3.org/2000/svg"
 width="752.000000pt" height="752.000000pt" viewBox="0 0 752.000000 752.000000"
 preserveAspectRatio="xMidYMid meet">
<metadata>
Created by potrace 1.14, written by Peter Selinger 2001-2017
</metadata>
<g transform="translate(0.000000,752.000000) scale(0.100000,-0.100000)"
fill="#000000" stroke="none">
<path d="M7416 7513 c-4 -5 -11 -8 -14 -9 -11 -1 -56 -13 -207 -55 -77 -22
-149 -41 -160 -44 -11 -2 -83 -23 -160 -45 -77 -22 -162 -45 -190 -51 -27 -6
-56 -16 -62 -21 -7 -6 -13 -8 -13 -5 0 3 -15 1 -32 -4 -48 -15 -71 -20 -85
-21 -7 -1 -13 -6 -13 -11 0 -6 -3 -8 -6 -5 -3 3 -44 -5 -92 -19 -48 -13 -94
-26 -102 -28 -8 -2 -89 -25 -180 -50 -91 -25 -175 -48 -187 -50 -12 -2 -27 -6
-32 -10 -6 -3 -19 -8 -28 -10 -10 -3 -36 -9 -58 -15 -22 -6 -47 -12 -55 -14
-66 -17 -468 -129 -480 -133 -8 -3 -19 -7 -25 -8 -5 -2 -45 -12 -88 -24 -43
-13 -87 -24 -98 -26 -10 -2 -23 -6 -27 -9 -5 -3 -19 -7 -33 -10 -13 -3 -49
-12 -79 -21 -30 -9 -63 -18 -72 -20 -9 -2 -72 -19 -140 -39 -68 -19 -152 -42
-188 -51 -36 -9 -72 -19 -80 -22 -8 -4 -20 -7 -25 -8 -6 -2 -43 -12 -82 -23
-39 -11 -74 -17 -77 -14 -3 3 -6 1 -6 -5 0 -5 -6 -10 -12 -10 -14 -1 -168 -42
-250 -67 -27 -8 -48 -12 -48 -10 0 3 -10 0 -21 -7 -12 -6 -31 -12 -43 -14 -21
-3 -128 -33 -226 -62 -30 -10 -60 -18 -65 -19 -6 -1 -78 -20 -160 -44 -150
-42 -169 -47 -214 -56 -13 -3 -34 -10 -45 -16 -12 -6 -22 -11 -23 -10 -2 1 -4
2 -5 1 -2 0 -10 -2 -18 -4 -21 -4 -103 -27 -240 -65 -63 -18 -119 -33 -125
-35 -5 -1 -17 -4 -25 -7 -23 -8 -243 -70 -260 -73 -12 -2 -77 -20 -110 -30
-26 -8 -59 -17 -71 -19 -8 -1 -34 -8 -59 -15 -25 -7 -45 -12 -45 -11 0 1 -13
-4 -30 -10 -16 -7 -39 -14 -50 -16 -11 -2 -42 -10 -70 -19 -27 -8 -151 -42
-275 -76 -124 -34 -226 -63 -227 -63 -3 -2 -41 -148 -46 -176 -3 -14 -11 -45
-18 -70 -7 -25 -14 -51 -15 -59 -1 -7 -8 -35 -14 -61 -6 -26 -13 -56 -15 -66
-2 -11 -4 -19 -5 -19 -1 0 -3 -7 -5 -15 -12 -43 -27 -107 -30 -120 -2 -8 -8
-35 -15 -60 -7 -25 -14 -54 -16 -65 -10 -52 -17 -81 -22 -90 -3 -5 -7 -16 -7
-25 -1 -8 -12 -55 -24 -105 -13 -49 -25 -97 -27 -105 -2 -8 -17 -71 -34 -140
-17 -69 -38 -154 -46 -190 -7 -36 -17 -72 -20 -80 -3 -8 -8 -26 -10 -40 -3
-14 -17 -70 -31 -125 -14 -54 -27 -106 -28 -115 -2 -8 -4 -15 -5 -15 -1 0 -3
-10 -6 -22 -2 -12 -22 -95 -45 -185 -22 -89 -42 -173 -45 -185 -2 -12 -9 -35
-15 -50 -6 -16 -10 -29 -9 -31 1 -2 -8 -45 -25 -122 0 -3 -4 -14 -8 -25 -3
-11 -8 -31 -11 -45 -3 -14 -19 -79 -36 -145 -16 -66 -32 -129 -34 -140 -2 -11
-27 -110 -54 -220 -28 -110 -53 -213 -57 -230 -8 -39 -13 -59 -15 -62 -2 -2
-3 -6 -4 -10 -10 -42 -17 -72 -21 -91 -2 -13 -7 -32 -10 -42 -3 -10 -8 -28
-10 -39 -3 -12 -7 -30 -10 -42 -2 -11 -7 -29 -10 -39 -3 -10 -8 -28 -10 -39
-3 -12 -7 -30 -10 -41 -3 -11 -7 -28 -9 -38 -3 -9 -17 -66 -31 -127 -15 -60
-29 -117 -30 -125 -2 -8 -4 -15 -5 -15 -1 0 -3 -7 -5 -15 -1 -9 -17 -74 -35
-145 -17 -72 -33 -137 -35 -145 -2 -8 -24 -98 -50 -200 -25 -102 -48 -194 -51
-205 -2 -11 -11 -47 -19 -80 -9 -33 -18 -70 -20 -81 -3 -12 -29 -120 -59 -241
-30 -120 -57 -231 -60 -246 -2 -15 -7 -30 -10 -35 -3 -5 -7 -19 -10 -33 -2
-13 -21 -89 -40 -169 -20 -80 -39 -156 -42 -170 -3 -14 -12 -52 -21 -85 -8
-33 -17 -71 -19 -85 -3 -14 -10 -38 -16 -53 -6 -15 -9 -30 -6 -32 4 -4 70 8
238 42 14 2 36 6 50 8 14 2 25 4 25 5 0 2 17 5 60 13 26 5 126 24 215 41 14 3
36 8 50 11 14 3 39 7 55 10 17 2 41 6 55 9 30 7 76 16 110 21 14 2 36 6 50 9
14 3 36 8 50 11 14 3 36 7 50 10 14 3 36 7 50 10 41 9 72 14 114 21 22 3 44 7
47 10 4 2 24 6 45 9 22 4 46 8 54 10 8 2 31 7 50 10 19 3 55 10 80 15 25 5 56
12 70 14 14 3 36 7 50 11 14 3 39 7 55 10 17 2 41 7 55 10 14 3 36 7 50 10 22
4 75 14 145 28 11 3 36 7 55 11 19 3 46 8 60 11 14 3 39 8 55 10 17 3 37 8 45
10 8 2 31 6 50 9 36 6 57 10 100 20 14 3 36 8 50 10 24 4 267 50 320 61 14 3
36 7 50 10 14 3 36 7 50 10 14 3 50 9 80 15 30 6 66 12 80 15 14 3 36 7 50 10
14 3 36 7 50 10 46 10 85 17 105 21 40 6 80 14 105 20 14 3 36 8 50 10 14 2
81 15 150 29 69 13 139 27 155 30 17 2 64 12 105 20 41 8 98 19 125 24 67 13
106 20 130 25 40 8 281 55 310 60 30 6 109 21 155 31 13 2 42 7 64 11 22 3 44
8 49 11 4 3 27 7 50 9 23 3 58 9 77 14 19 5 51 12 70 15 19 3 94 18 165 32 72
14 141 27 155 29 14 2 36 7 50 10 14 3 36 8 50 10 14 2 36 7 50 10 13 3 38 7
55 10 36 5 70 12 70 14 0 1 9 3 20 4 11 2 47 9 80 15 33 7 71 14 85 16 14 2
45 8 70 14 43 9 62 13 140 26 19 3 42 8 50 10 22 6 91 19 132 24 5 1 33 102
30 108 -1 2 5 21 13 43 8 22 12 40 10 40 -2 0 4 30 14 68 15 55 45 177 66 268
2 11 12 48 20 84 21 82 27 112 28 128 0 6 4 12 8 12 5 0 6 6 3 14 -3 8 0 17 5
21 6 3 9 10 6 14 -2 5 2 35 11 66 8 32 16 68 19 79 2 12 4 21 5 21 1 0 3 8 5
17 2 9 11 48 20 85 10 37 19 77 21 88 1 11 15 67 29 125 15 58 29 116 31 130
3 14 7 33 10 42 3 9 7 26 9 37 7 32 13 53 24 89 5 17 8 32 6 32 -3 0 0 11 5
26 6 14 12 39 15 57 3 18 13 59 21 92 9 33 17 67 19 75 3 13 43 179 49 205 2
6 7 28 11 50 12 55 12 55 15 58 1 1 3 9 5 17 27 124 46 202 54 223 5 14 8 27
6 29 -2 2 2 26 11 53 8 28 17 64 20 80 2 17 9 44 14 60 5 17 11 41 14 55 7 34
11 52 35 150 12 47 23 95 26 108 7 31 12 50 25 102 6 25 15 63 20 85 5 22 11
49 14 60 4 19 44 182 52 215 2 8 8 35 15 60 6 25 13 56 15 69 3 14 16 68 30
120 14 53 27 108 29 124 2 15 6 31 9 36 3 4 8 23 11 42 3 19 13 61 21 94 17
64 22 85 30 125 3 14 17 70 31 125 14 55 27 109 28 120 2 11 11 49 20 85 16
61 19 74 29 118 2 9 9 35 14 57 6 22 13 51 16 65 2 14 14 63 26 110 11 47 23
96 26 110 3 14 16 70 30 125 30 122 33 135 38 160 2 11 23 97 46 190 44 180
47 193 56 239 2 16 7 32 9 36 4 7 7 20 26 118 7 34 16 62 20 62 4 0 6 8 4 18
-1 9 2 25 6 34 5 9 10 30 12 45 2 16 7 34 11 41 4 7 5 12 2 12 -3 0 -1 11 4
26 6 14 12 39 15 57 3 18 8 40 11 49 3 9 7 25 9 35 2 10 9 35 14 56 5 20 7 37
4 37 -3 0 0 7 7 15 7 8 10 15 6 15 -3 0 -2 10 3 23 5 13 12 40 15 60 3 20 7
42 8 48 4 14 -15 22 -26 12z"/>
</g>
</svg>
